<mxfile modified="2024-01-15T16:34:08.612Z" host="app.diagrams.net" agent="Mozilla/5.0 (Macintosh; Intel Mac OS X 10.15; rv:121.0) Gecko/20100101 Firefox/121.0" etag="WQ0gfPVro10okIzAJZ4x" version="21.2.1" type="github">
  <diagram id="l8hXMBHkgcEJcSW0mbfh" name="Page-1">
    <mxGraphModel dx="2314" dy="1044" grid="1" gridSize="10" guides="1" tooltips="1" connect="1" arrows="1" fold="1" page="1" pageScale="1" pageWidth="1654" pageHeight="1169" math="0" shadow="0">
      <root>
        <mxCell id="0" />
        <mxCell id="1" parent="0" />
        <mxCell id="D-P4FoIyVBjv3j4gOKvl-30" value="" style="edgeStyle=orthogonalEdgeStyle;rounded=0;orthogonalLoop=1;jettySize=auto;html=1;" edge="1" parent="1" source="D-P4FoIyVBjv3j4gOKvl-1" target="D-P4FoIyVBjv3j4gOKvl-29">
          <mxGeometry relative="1" as="geometry" />
        </mxCell>
        <mxCell id="D-P4FoIyVBjv3j4gOKvl-1" value="Internet" style="image;aspect=fixed;perimeter=ellipsePerimeter;html=1;align=center;shadow=0;dashed=0;spacingTop=3;image=img/lib/active_directory/internet_cloud.svg;" vertex="1" parent="1">
          <mxGeometry x="81" y="364.25" width="50" height="31.5" as="geometry" />
        </mxCell>
        <mxCell id="D-P4FoIyVBjv3j4gOKvl-10" value="&lt;div&gt;Proxmox&lt;/div&gt;&lt;div&gt;192.168.88.238&lt;br&gt;&lt;/div&gt;" style="fontColor=#0066CC;verticalAlign=top;verticalLabelPosition=bottom;labelPosition=center;align=center;html=1;outlineConnect=0;fillColor=#CCCCCC;strokeColor=#6881B3;gradientColor=none;gradientDirection=north;strokeWidth=2;shape=mxgraph.networks.server;" vertex="1" parent="1">
          <mxGeometry x="651" y="330" width="90" height="100" as="geometry" />
        </mxCell>
        <mxCell id="D-P4FoIyVBjv3j4gOKvl-27" value="" style="edgeStyle=orthogonalEdgeStyle;rounded=0;orthogonalLoop=1;jettySize=auto;html=1;" edge="1" parent="1" source="D-P4FoIyVBjv3j4gOKvl-21" target="D-P4FoIyVBjv3j4gOKvl-10">
          <mxGeometry relative="1" as="geometry" />
        </mxCell>
        <mxCell id="D-P4FoIyVBjv3j4gOKvl-21" value="&lt;div&gt;PfSense &quot;WAN&quot;&lt;/div&gt;&lt;div&gt;192.168.88.123&lt;br&gt;&lt;/div&gt;" style="shape=mxgraph.cisco.security.firewall;sketch=0;html=1;pointerEvents=1;dashed=0;fillColor=#036897;strokeColor=#ffffff;strokeWidth=2;verticalLabelPosition=bottom;verticalAlign=top;align=center;outlineConnect=0;" vertex="1" parent="1">
          <mxGeometry x="531" y="346.5" width="29" height="67" as="geometry" />
        </mxCell>
        <mxCell id="D-P4FoIyVBjv3j4gOKvl-26" value="" style="edgeStyle=orthogonalEdgeStyle;rounded=0;orthogonalLoop=1;jettySize=auto;html=1;" edge="1" parent="1" source="D-P4FoIyVBjv3j4gOKvl-22" target="D-P4FoIyVBjv3j4gOKvl-21">
          <mxGeometry relative="1" as="geometry" />
        </mxCell>
        <mxCell id="D-P4FoIyVBjv3j4gOKvl-54" style="edgeStyle=orthogonalEdgeStyle;rounded=0;orthogonalLoop=1;jettySize=auto;html=1;" edge="1" parent="1" source="D-P4FoIyVBjv3j4gOKvl-22" target="D-P4FoIyVBjv3j4gOKvl-51">
          <mxGeometry relative="1" as="geometry" />
        </mxCell>
        <mxCell id="D-P4FoIyVBjv3j4gOKvl-22" value="&lt;div&gt;Routeur MikrotIk&lt;/div&gt;&lt;div&gt;192.168.88.1&lt;br&gt;&lt;/div&gt;" style="shape=mxgraph.cisco.routers.wireless_router;sketch=0;html=1;pointerEvents=1;dashed=0;fillColor=#036897;strokeColor=#ffffff;strokeWidth=2;verticalLabelPosition=bottom;verticalAlign=top;align=center;outlineConnect=0;" vertex="1" parent="1">
          <mxGeometry x="365" y="341.5" width="78" height="77" as="geometry" />
        </mxCell>
        <mxCell id="D-P4FoIyVBjv3j4gOKvl-28" value="" style="edgeStyle=orthogonalEdgeStyle;rounded=0;orthogonalLoop=1;jettySize=auto;html=1;" edge="1" parent="1" source="D-P4FoIyVBjv3j4gOKvl-10" target="D-P4FoIyVBjv3j4gOKvl-23">
          <mxGeometry relative="1" as="geometry">
            <mxPoint x="796" y="430.5" as="sourcePoint" />
            <mxPoint x="931" y="537.5" as="targetPoint" />
          </mxGeometry>
        </mxCell>
        <mxCell id="D-P4FoIyVBjv3j4gOKvl-43" style="edgeStyle=orthogonalEdgeStyle;rounded=0;orthogonalLoop=1;jettySize=auto;html=1;" edge="1" parent="1" source="D-P4FoIyVBjv3j4gOKvl-23" target="D-P4FoIyVBjv3j4gOKvl-36">
          <mxGeometry relative="1" as="geometry" />
        </mxCell>
        <mxCell id="D-P4FoIyVBjv3j4gOKvl-44" style="edgeStyle=orthogonalEdgeStyle;rounded=0;orthogonalLoop=1;jettySize=auto;html=1;entryX=1;entryY=0.5;entryDx=0;entryDy=0;entryPerimeter=0;" edge="1" parent="1" source="D-P4FoIyVBjv3j4gOKvl-23" target="D-P4FoIyVBjv3j4gOKvl-39">
          <mxGeometry relative="1" as="geometry" />
        </mxCell>
        <mxCell id="D-P4FoIyVBjv3j4gOKvl-47" style="edgeStyle=orthogonalEdgeStyle;rounded=0;orthogonalLoop=1;jettySize=auto;html=1;entryX=0.359;entryY=0.282;entryDx=0;entryDy=0;entryPerimeter=0;" edge="1" parent="1" source="D-P4FoIyVBjv3j4gOKvl-23" target="D-P4FoIyVBjv3j4gOKvl-42">
          <mxGeometry relative="1" as="geometry" />
        </mxCell>
        <mxCell id="D-P4FoIyVBjv3j4gOKvl-31" value="" style="edgeStyle=orthogonalEdgeStyle;rounded=0;orthogonalLoop=1;jettySize=auto;html=1;" edge="1" parent="1" source="D-P4FoIyVBjv3j4gOKvl-29" target="D-P4FoIyVBjv3j4gOKvl-22">
          <mxGeometry relative="1" as="geometry" />
        </mxCell>
        <mxCell id="D-P4FoIyVBjv3j4gOKvl-29" value="&lt;div&gt;Modem FreeBox&lt;/div&gt;&lt;div&gt;192.168.1.1&lt;br&gt;&lt;/div&gt;" style="shape=mxgraph.cisco.routers.wireless_router;sketch=0;html=1;pointerEvents=1;dashed=0;fillColor=#036897;strokeColor=#ffffff;strokeWidth=2;verticalLabelPosition=bottom;verticalAlign=top;align=center;outlineConnect=0;" vertex="1" parent="1">
          <mxGeometry x="191" y="341.5" width="78" height="77" as="geometry" />
        </mxCell>
        <mxCell id="D-P4FoIyVBjv3j4gOKvl-32" value="Infra VLAN 200&#xa;10.0.8.1/24&#xa; &#xa;" style="swimlane;startSize=28;" vertex="1" parent="1">
          <mxGeometry x="781" y="477.5" width="430" height="300" as="geometry" />
        </mxCell>
        <mxCell id="D-P4FoIyVBjv3j4gOKvl-16" value="DNS PiHole" style="verticalLabelPosition=bottom;sketch=0;aspect=fixed;html=1;verticalAlign=top;strokeColor=none;align=center;outlineConnect=0;shape=mxgraph.citrix.dns_server;" vertex="1" parent="D-P4FoIyVBjv3j4gOKvl-32">
          <mxGeometry x="300" y="60" width="76.5" height="92.5" as="geometry" />
        </mxCell>
        <mxCell id="D-P4FoIyVBjv3j4gOKvl-33" value="vmbr200 : 10.0.8.1/24" style="shape=mxgraph.cisco.security.router_firewall;sketch=0;html=1;pointerEvents=1;dashed=0;fillColor=#036897;strokeColor=#ffffff;strokeWidth=2;verticalLabelPosition=bottom;verticalAlign=top;align=center;outlineConnect=0;" vertex="1" parent="D-P4FoIyVBjv3j4gOKvl-32">
          <mxGeometry x="150" y="60" width="78" height="62" as="geometry" />
        </mxCell>
        <mxCell id="D-P4FoIyVBjv3j4gOKvl-23" value="" style="shape=mxgraph.cisco.security.guard;sketch=0;html=1;pointerEvents=1;dashed=0;fillColor=#036897;strokeColor=#ffffff;strokeWidth=2;verticalLabelPosition=bottom;verticalAlign=top;align=center;outlineConnect=0;" vertex="1" parent="D-P4FoIyVBjv3j4gOKvl-32">
          <mxGeometry x="-60" y="50" width="88" height="54" as="geometry" />
        </mxCell>
        <mxCell id="D-P4FoIyVBjv3j4gOKvl-18" value="" style="edgeStyle=orthogonalEdgeStyle;rounded=0;orthogonalLoop=1;jettySize=auto;html=1;" edge="1" parent="D-P4FoIyVBjv3j4gOKvl-32" source="D-P4FoIyVBjv3j4gOKvl-23" target="D-P4FoIyVBjv3j4gOKvl-33">
          <mxGeometry relative="1" as="geometry">
            <mxPoint x="150" y="60" as="targetPoint" />
          </mxGeometry>
        </mxCell>
        <mxCell id="D-P4FoIyVBjv3j4gOKvl-34" value="Admin VLAN 100&#xa;10.0.128.1/24&#xa; &#xa;" style="swimlane;startSize=30;" vertex="1" parent="1">
          <mxGeometry x="80" y="477.5" width="480" height="230.25" as="geometry" />
        </mxCell>
        <mxCell id="D-P4FoIyVBjv3j4gOKvl-36" value="vmbr100 : 10.0.128.1/24" style="shape=mxgraph.cisco.security.router_firewall;sketch=0;html=1;pointerEvents=1;dashed=0;fillColor=#036897;strokeColor=#ffffff;strokeWidth=2;verticalLabelPosition=bottom;verticalAlign=top;align=center;outlineConnect=0;" vertex="1" parent="D-P4FoIyVBjv3j4gOKvl-34">
          <mxGeometry x="426.5" y="42" width="78" height="62" as="geometry" />
        </mxCell>
        <mxCell id="D-P4FoIyVBjv3j4gOKvl-37" value="Back VLAN 400&#xa;10.0.64.1/24&#xa; &#xa;" style="swimlane;startSize=30;" vertex="1" parent="1">
          <mxGeometry x="81" y="757.5" width="500" height="350" as="geometry" />
        </mxCell>
        <mxCell id="D-P4FoIyVBjv3j4gOKvl-39" value="vmbr400 : 10.0.64.1/24" style="shape=mxgraph.cisco.security.router_firewall;sketch=0;html=1;pointerEvents=1;dashed=0;fillColor=#036897;strokeColor=#ffffff;strokeWidth=2;verticalLabelPosition=bottom;verticalAlign=top;align=center;outlineConnect=0;" vertex="1" parent="D-P4FoIyVBjv3j4gOKvl-37">
          <mxGeometry x="440" y="40.5" width="78" height="62" as="geometry" />
        </mxCell>
        <mxCell id="D-P4FoIyVBjv3j4gOKvl-40" value="FrontEnd VLAN 300&#xa;10.0.32.1/24&#xa; &#xa;" style="swimlane;startSize=25;" vertex="1" parent="1">
          <mxGeometry x="671" y="807.5" width="540" height="310" as="geometry" />
        </mxCell>
        <mxCell id="D-P4FoIyVBjv3j4gOKvl-42" value="vmbr300 : 10.0.32.1/24" style="shape=mxgraph.cisco.security.router_firewall;sketch=0;html=1;pointerEvents=1;dashed=0;fillColor=#036897;strokeColor=#ffffff;strokeWidth=2;verticalLabelPosition=bottom;verticalAlign=top;align=center;outlineConnect=0;" vertex="1" parent="D-P4FoIyVBjv3j4gOKvl-40">
          <mxGeometry x="-40" y="52.5" width="78" height="62" as="geometry" />
        </mxCell>
        <mxCell id="D-P4FoIyVBjv3j4gOKvl-50" style="edgeStyle=orthogonalEdgeStyle;rounded=0;orthogonalLoop=1;jettySize=auto;html=1;entryX=0.5;entryY=0.63;entryDx=0;entryDy=0;entryPerimeter=0;" edge="1" parent="1" source="D-P4FoIyVBjv3j4gOKvl-49" target="D-P4FoIyVBjv3j4gOKvl-29">
          <mxGeometry relative="1" as="geometry" />
        </mxCell>
        <mxCell id="D-P4FoIyVBjv3j4gOKvl-49" value="Apple TV" style="outlineConnect=0;dashed=0;verticalLabelPosition=bottom;verticalAlign=top;align=center;html=1;shape=mxgraph.aws3.fire_tv_stick;fillColor=#5294CF;gradientColor=none;" vertex="1" parent="1">
          <mxGeometry x="187.25" y="250" width="85.5" height="33" as="geometry" />
        </mxCell>
        <mxCell id="D-P4FoIyVBjv3j4gOKvl-55" style="edgeStyle=orthogonalEdgeStyle;rounded=0;orthogonalLoop=1;jettySize=auto;html=1;" edge="1" parent="1" source="D-P4FoIyVBjv3j4gOKvl-51" target="D-P4FoIyVBjv3j4gOKvl-20">
          <mxGeometry relative="1" as="geometry" />
        </mxCell>
        <mxCell id="D-P4FoIyVBjv3j4gOKvl-51" value="&lt;div&gt;NetGear&lt;/div&gt;&lt;div&gt;192.168.88.181&lt;br&gt;&lt;/div&gt;" style="fontColor=#0066CC;verticalAlign=top;verticalLabelPosition=bottom;labelPosition=center;align=center;html=1;outlineConnect=0;fillColor=#CCCCCC;strokeColor=#6881B3;gradientColor=none;gradientDirection=north;strokeWidth=2;shape=mxgraph.networks.switch;" vertex="1" parent="1">
          <mxGeometry x="354" y="250" width="100" height="30" as="geometry" />
        </mxCell>
        <mxCell id="D-P4FoIyVBjv3j4gOKvl-20" value="NAS" style="fontColor=#0066CC;verticalAlign=top;verticalLabelPosition=bottom;labelPosition=center;align=center;html=1;outlineConnect=0;fillColor=#CCCCCC;strokeColor=#6881B3;gradientColor=none;gradientDirection=north;strokeWidth=2;shape=mxgraph.networks.storage;" vertex="1" parent="1">
          <mxGeometry x="381" y="100" width="46" height="70" as="geometry" />
        </mxCell>
      </root>
    </mxGraphModel>
  </diagram>
</mxfile>
